<?xml version="1.0" encoding="utf-8"?>
<svg xmlns="http://www.w3.org/2000/svg" xmlns:xlink="http://www.w3.org/1999/xlink">
  <symbol fill="currentColor" class="bi bi-chough" viewBox="0 0 8.6551704 5.7034082" id="chough" xmlns="http://www.w3.org/2000/svg">
    <g transform="translate(-43.026526,-27.594454), matrix(0.35277777,0,0,-0.35277777,-193.52381,190.36091)">
     <path d="m 694.4114,446.3075 c -3.409,3.324 -5.84,5.256 -7.479,6.387 -2.258,2.487 -4.244,4.292 -4.28,4.328 -0.007,0.004 -0.012,0.008 -0.019,0.012 -0.164,0.144 -0.342,0.271 -0.523,0.394 -0.324,0.22 -0.648,0.438 -0.973,0.656 -0.267,0.181 -0.539,0.355 -0.803,0.541 -0.204,0.164 -0.386,0.319 -0.547,0.461 -0.069,0.075 -0.141,0.147 -0.212,0.22 -0.228,0.233 -0.414,0.493 -0.627,0.738 -0.1,0.114 -0.207,0.218 -0.322,0.313 -1.29,1.369 -2.54,1.048 -3.033,0.836 -0.163,-0.041 -0.319,-0.114 -0.459,-0.219 -0.169,-0.125 -0.329,-0.263 -0.488,-0.406 -0.495,-0.234 -1.054,-0.427 -1.014,-0.386 -0.31,-0.07 -0.567,-0.146 -0.781,-0.224 -0.003,-0.114 -0.021,-0.227 -0.032,-0.342 -10e-4,-0.009 -0.004,-0.017 -0.005,-0.025 0.11,0.006 0.218,0.013 0.325,0.015 0.105,0.001 0.182,-0.041 0.232,-0.104 0.209,0.033 0.441,0.037 0.557,0.026 0.198,-0.044 0.399,-0.093 0.586,-0.162 0.702,-0.403 0.963,-1.758 1.007,-1.84 l 0.015,-0.032 c 0.15,-0.788 1.17,-2.887 1.75,-3.967 0.146,-0.432 0.375,-0.833 0.669,-1.179 0.983,-1.563 3.2,-2.31 3.2,-2.31 1.313,-0.882 3.152,-0.974 4.155,-0.948 0.423,-0.116 0.818,-0.215 1.168,-0.298 l 0.102,-0.079 c 0.035,0.014 0.075,0.022 0.12,0.021 h 0.027 c 0.77,-0.176 1.269,-0.261 1.269,-0.261 0.499,-0.171 1.374,-0.573 2.316,-1.031 0.863,-0.502 1.754,-0.951 2.672,-1.343 0.79,-0.407 1.344,-0.7 1.344,-0.7 1.605,-0.689 0.112,0.799 0.083,0.908"/>
     <path d="m 694.0335,448.4115 c 0,0 -0.532,0.33 -1.282,0.806 -0.802,0.594 -1.64,1.138 -2.509,1.628 -0.871,0.583 -1.66,1.135 -2.06,1.479 0,0 -5.999,7.128 -9.144,5.621 0.031,-0.073 -2.849,-1.274 2.142,-5.247 0.112,0.065 1.996,-2.032 12.112,-4.818 0.108,0.031 2.147,-0.506 0.741,0.531" />
     <path d="m 670.5364,458.9731 c 0.629,0.485 1.111,0.771 1.568,0.982 0.497,0.23 1.88,0.577 2.411,0.449 0.009,-0.002 0.018,-0.005 0.026,-0.007 0.189,-0.069 0.334,-0.524 0.375,-0.723 0.059,-0.298 0.066,-0.31 -0.182,-0.34 -0.179,-0.021 -0.425,-0.016 -0.577,-0.006 -1.324,0.087 -2.224,-0.024 -3.621,-0.355"/>
     <path d="m 683.9895,447.9374 -0.462,0.29 -2.243,-1.837 h 0.758 c 0.398,0.284 1.947,1.547 1.947,1.547"/>
     <path d="m 684.6331,448.7065 c 0.011,0.218 -0.006,0.436 -0.056,0.65 -0.03,0.136 -0.074,0.269 -0.13,0.397 -0.026,0.061 -0.05,0.144 -0.113,0.179 -0.137,0.078 -0.3,-0.084 -0.404,-0.148 -0.146,-0.088 -0.316,-0.165 -0.489,-0.13 -0.123,0.025 -0.237,0.103 -0.348,0.156 -0.111,0.054 -0.225,0.103 -0.34,0.147 -0.086,0.033 -0.188,0.086 -0.279,0.095 -0.089,0.009 -0.164,-0.041 -0.123,-0.133 0.039,-0.087 0.135,-0.155 0.202,-0.218 0.083,-0.078 0.162,-0.161 0.238,-0.246 0.175,-0.197 0.331,-0.409 0.484,-0.622 0.062,-0.086 0.141,-0.179 0.187,-0.28 0,-0.047 0.001,-0.094 0.01,-0.14 0.011,-0.065 0.031,-0.126 0.056,-0.186 l 0.461,-0.29 c 0,0 0.709,0.207 0.644,0.769"/>
     <path d="m 686.5208,447.9374 -0.461,0.29 -2.244,-1.837 h 0.759 c 0.398,0.284 1.946,1.547 1.946,1.547"/>
     <path d="m 687.1643,448.7065 c 0.012,0.218 -0.006,0.436 -0.055,0.65 -0.031,0.136 -0.074,0.269 -0.13,0.397 -0.026,0.061 -0.051,0.144 -0.113,0.179 -0.138,0.078 -0.3,-0.084 -0.405,-0.148 -0.145,-0.088 -0.315,-0.165 -0.489,-0.13 -0.122,0.025 -0.237,0.103 -0.348,0.156 -0.111,0.054 -0.225,0.103 -0.339,0.147 -0.086,0.033 -0.188,0.086 -0.279,0.095 -0.089,0.009 -0.164,-0.041 -0.123,-0.133 0.038,-0.087 0.135,-0.155 0.201,-0.218 0.084,-0.078 0.163,-0.161 0.239,-0.246 0.175,-0.197 0.331,-0.409 0.484,-0.622 0.061,-0.086 0.141,-0.179 0.187,-0.28 0,-0.047 0.001,-0.094 0.009,-0.14 0.012,-0.065 0.031,-0.126 0.057,-0.186 l 0.46,-0.29 c 0,0 0.709,0.207 0.644,0.769"/>
     <path d="m 681.7356,446.5326 c -0.68,-0.043 -1.359,0.056 -2.039,0.03 -0.183,-0.007 -0.363,-0.039 -0.544,-0.07 -0.064,-0.011 -0.102,-0.091 -0.085,-0.15 0.019,-0.07 0.085,-0.098 0.15,-0.086 0.081,0.013 0.162,0.028 0.243,0.04 0.007,10e-4 0.016,0.002 0.024,0.004 0.023,0.003 -0.028,-0.004 0.011,0.001 0.015,0.002 0.032,0.003 0.048,0.005 0.037,0.004 0.075,0.007 0.112,0.009 0.164,0.008 0.328,0.007 0.492,0.003 0.344,-0.009 0.688,-0.032 1.031,-0.039 0.186,-0.005 0.371,-0.004 0.557,0.008 0.063,0.004 0.126,0.053 0.123,0.122 -0.003,0.063 -0.055,0.127 -0.123,0.123"/>
     <path d="m 681.7356,446.4975 c -0.631,-0.031 -1.263,-0.083 -1.888,-0.176 -0.171,-0.025 -0.339,-0.064 -0.507,-0.107 -0.063,-0.017 -0.102,-0.088 -0.084,-0.151 0.017,-0.065 0.085,-0.103 0.15,-0.086 0.144,0.038 0.29,0.073 0.437,0.097 0.146,0.024 0.289,0.04 0.438,0.058 0.307,0.035 0.614,0.065 0.923,0.087 0.177,0.013 0.353,0.024 0.531,0.032 0.063,0.003 0.126,0.055 0.123,0.123 -0.003,0.064 -0.055,0.126 -0.123,0.123"/>
     <path d="m 681.678,446.5033 c -0.56,-0.116 -1.12,-0.25 -1.663,-0.429 -0.154,-0.051 -0.302,-0.116 -0.447,-0.188 -0.06,-0.029 -0.077,-0.114 -0.044,-0.168 0.035,-0.061 0.108,-0.073 0.168,-0.044 0.12,0.059 0.233,0.11 0.359,0.153 0.13,0.045 0.263,0.083 0.395,0.121 0.27,0.077 0.543,0.148 0.817,0.213 0.159,0.037 0.32,0.072 0.48,0.105 0.066,0.013 0.103,0.09 0.086,0.151 -0.018,0.067 -0.086,0.099 -0.151,0.086"/>
     <path d="m 681.7903,446.2304 c 0.474,-0.043 0.94,-0.117 1.405,-0.224 0.063,-0.015 0.136,0.019 0.151,0.085 0.014,0.063 -0.019,0.136 -0.085,0.152 -0.485,0.111 -0.976,0.187 -1.471,0.233 -0.063,0.005 -0.125,-0.061 -0.122,-0.123 0.003,-0.072 0.054,-0.117 0.122,-0.123"/>
     <path d="m 684.3948,446.5326 c -0.68,-0.043 -1.359,0.056 -2.039,0.03 -0.184,-0.007 -0.363,-0.039 -0.544,-0.07 -0.065,-0.011 -0.102,-0.091 -0.086,-0.15 0.02,-0.07 0.086,-0.098 0.151,-0.086 0.08,0.013 0.162,0.028 0.242,0.04 0.008,10e-4 0.016,0.002 0.025,0.004 0.023,0.003 -0.029,-0.004 0.01,0.001 0.016,0.002 0.032,0.003 0.049,0.005 0.037,0.004 0.074,0.007 0.112,0.009 0.163,0.008 0.327,0.007 0.491,0.003 0.345,-0.009 0.688,-0.032 1.032,-0.039 0.186,-0.005 0.371,-0.004 0.557,0.008 0.063,0.004 0.125,0.053 0.122,0.122 -0.003,0.063 -0.054,0.127 -0.122,0.123"/>
     <path d="m 684.3948,446.4975 c -0.631,-0.031 -1.264,-0.083 -1.888,-0.176 -0.172,-0.025 -0.339,-0.064 -0.507,-0.107 -0.064,-0.017 -0.103,-0.088 -0.085,-0.151 0.018,-0.065 0.086,-0.103 0.151,-0.086 0.144,0.038 0.289,0.073 0.436,0.097 0.147,0.024 0.289,0.04 0.439,0.058 0.307,0.035 0.614,0.065 0.923,0.087 0.177,0.013 0.353,0.024 0.531,0.032 0.063,0.003 0.125,0.055 0.122,0.123 -0.003,0.064 -0.054,0.126 -0.122,0.123"/>
     <path d="m 684.3372,446.5033 c -0.56,-0.116 -1.121,-0.25 -1.664,-0.429 -0.154,-0.051 -0.301,-0.116 -0.446,-0.188 -0.06,-0.029 -0.077,-0.114 -0.045,-0.168 0.036,-0.061 0.108,-0.073 0.168,-0.044 0.12,0.059 0.234,0.11 0.36,0.153 0.13,0.045 0.262,0.083 0.395,0.121 0.27,0.077 0.543,0.148 0.817,0.213 0.159,0.037 0.319,0.072 0.48,0.105 0.065,0.013 0.103,0.09 0.086,0.151 -0.018,0.067 -0.086,0.099 -0.151,0.086"/>
     <path d="m 684.3469,446.2519 c 0.526,-0.044 1.042,-0.116 1.56,-0.224 0.062,-0.013 0.135,0.018 0.151,0.085 0.014,0.062 -0.019,0.138 -0.086,0.151 -0.536,0.112 -1.079,0.188 -1.625,0.234 -0.063,0.005 -0.125,-0.061 -0.122,-0.123 0.003,-0.071 0.054,-0.117 0.122,-0.123"/>
   </g>
  </symbol>
  <symbol fill="currentColor" class="bi wine-glass" viewBox="0 0 288 512" id="wine-glass" xmlns="http://www.w3.org/2000/svg">
    <path d="M213.34 480H160V350.27c76.73-8.72 134.57-77.6 127.4-157.61L271.44 14.55C270.71 6.31 263.9 0 255.74 0H32.26c-8.15 0-14.97 6.31-15.7 14.55L.6 192.66C-6.57 272.67 51.27 341.55 128 350.27V480H74.67C59.94 480 48 491.94 48 506.67c0 2.95 2.39 5.33 5.33 5.33h181.34c2.95 0 5.33-2.39 5.33-5.33 0-14.73-11.94-26.67-26.66-26.67zm27.54-448l8.6 96H38.52l8.6-96h193.76zM32.47 195.51L35.66 160h216.69l3.18 35.51c1.81 20.16-1.58 39.48-9.07 56.6-17.71 40.48-58.27 66.15-102.45 66.15s-84.74-25.67-102.45-66.15c-7.51-17.12-10.89-36.44-9.09-56.6z"></path>
  </symbol>
</svg>
