<?xml version="1.0" encoding="utf-8"?>
<svg xmlns="http://www.w3.org/2000/svg" xmlns:xlink="http://www.w3.org/1999/xlink">
  <symbol fill="currentColor" class="bi bi-piggy-bank-regular" viewBox="80 0 90 200" id="chough-regular" xmlns="http://www.w3.org/2000/svg">
    <g transform="matrix(1.3333 0 0 -1.3333 0 1122.5)">
    <path fill-rule="nonzero" d="m28.34198,825.47272c-9.961,1.64996 -13.99402,0.70099 -23.84198,-1.02704c6.39099,6.77301 21.14499,9.46301 26.69199,9.71606c-1.88699,-2.23999 -2.047,-5.73407 -2.85001,-8.68903" id="path74"></path>
    <path fill-rule="nonzero" d="m97.9221,720.63873c-2.48596,-3.01001 -4.36096,-6.547 -6.39299,-9.91998c-1.77301,-2.953 -1.586,-6.19904 -3.90399,-8.65601c-1.06201,-1.12097 -2.11105,-3.44397 -1.75198,-4.86499c0.39096,-1.57501 4.73996,-1.84204 6.09801,-1.84204c1.38699,0 2.61499,-0.64099 3.867,-1.18994c4.40198,-1.953 3.07996,-3.11902 0.32599,-2.65002c-0.91602,0.15198 -1.81601,0.93396 -2.79501,0.76599c-1.07599,-0.17804 -1.71303,-0.91302 -3.02904,-0.99701c-2.01801,-0.13 -3.33197,-0.88 -5.35599,-0.73804c-1.20996,0.07806 -3.46802,1.28503 -4.52902,0.57404c-0.97797,-0.66797 -2.047,-0.94299 -3.146,-1.29602c-0.82095,-0.26398 -1.19397,-0.63898 -2.11597,-0.73297c-1.73398,-0.17999 -4.77899,0.39496 -6.26501,-0.62701c-1.86301,-1.271 -2.08002,-2.88898 -4.18201,-2.18701c-1.32202,0.44501 0.27802,3.71606 1.01602,4.14801c0.80795,0.47498 1.61899,0.94299 2.45297,1.37897c1.047,0.53705 2.39798,0.02307 3.27698,0.47705c0.24103,0.13 0.53903,0.43298 0.72507,0.65802c-2.87903,0.72797 -5.72507,2.203 -8.68405,2.203c-1.90796,0 -2.685,-0.65399 -3.922,-2.27502c-0.539,-0.70197 -3.35297,-2.70801 -3.35297,-0.38104c0,2.427 3.75598,6.60504 5.86899,6.91205c3.29697,0.45898 5.76797,-1.86505 8.85202,-1.99402c3.09296,-0.12299 6.53696,-0.64899 8.29697,2.763c1.52103,2.95697 3.75104,5.26599 5.73401,7.89301c2.01001,2.65802 2.20901,1.84601 4.004,4.97296c0.88699,1.53705 3.18703,6.68701 4.05403,8.06604c0.45599,0.71698 3.96902,-0.461 4.85397,-0.461" id="path78"></path>
    <path fill-rule="nonzero" d="m106.00999,726.46887c-0.91599,-3.01599 -0.87097,-9.35205 -2.02298,-12.58203c-1.21301,-3.36096 -2.28802,-3.07996 -3.15302,-6.28101c-1.80298,-6.711 -15.65199,2.70502 -16.23,-5.047c3.633,-0.28101 3.47198,1.81201 11.20903,-0.47302c0.55099,-0.16199 1.67398,0.44702 1.59,-0.68097c-0.04901,-0.62701 -1.48703,-0.89899 -1.90503,-0.922c-1.81799,-0.08398 -3.63997,-0.23297 -5.451,-0.479c-1.71301,-0.242 -3.10004,-0.492 -4.40204,-1.742c-1.47296,-1.40601 4.517,-0.172 5.12305,-0.15796c3.58,0.09399 5.80198,-0.86707 9.01698,0.45898c2.43604,1.01001 7.84201,0.56995 10.34201,0.63293c1.811,0.05603 2.63303,2.16907 4.17001,2.54303c1.23099,0.29205 4.12701,-1.948 4.858,-1.16797c1.69699,1.79999 -5.68597,4.01697 -7.48099,4.01697c-1.70703,0 -3.22302,-0.28497 -4.896,0.15601c-2.22705,0.59601 -1.77802,2.33002 -1.29102,4.24799c1.56396,6.06104 3.793,11.48499 4.56,17.80298c-1.34601,0.07001 -1.04297,0.99005 -2.49603,1.06305c0,-0.18805 -1.54099,-1.20502 -1.54099,-1.38898" id="path82"></path>
    <path fill-rule="nonzero" d="m25.40259,825.75201c7.60699,-2.97699 9.45898,-14.52301 10.17398,-21.64099c0.39603,-3.96301 -0.30701,-8.224 -0.40598,-12.20502c-0.112,-4.29297 -0.13699,-8.586 -0.22299,-12.888c-0.08603,-4.02203 1.35901,-7.83197 2.285,-11.72699c0.90601,-3.76404 4.24799,-9.36096 6.44,-12.40198c4.72195,-6.54102 9.517,-12.94403 16.77899,-16.60205c11.02301,-5.539 25.76901,-4.73193 31.98402,-15.51898c0.92203,-1.59601 0.07599,-2.12897 2.07397,-2.12897c1.84402,0 3.35004,-1.57501 3.55701,0.552c0.315,3.23096 -1.60696,1.58997 -2.707,4.854c-0.43198,1.28296 1.65598,2.80896 2.65598,1.93701c0.94006,-0.80603 2.77405,-2.04407 3.99805,-1.77502c2.99298,0.633 4.39899,4.95703 3.98502,0.46503c0.48801,0.24799 3.70096,-1.25806 4.02499,-0.086c0.25998,0.96698 1.15399,0.83997 1.72299,1.13495c2.72,1.43903 8.228,1.37701 11.14395,1c4.25201,-0.52997 14.84607,1.88501 24.48904,0.41803c3.65195,-0.55103 8.65195,-2.80304 14.18301,-4.69403c7.14697,-2.19696 20.83795,-7.06396 17.95096,-3.23999c-1.74399,2.30304 -5.49997,3.815 -7.94098,5.20502c-2.88101,1.65601 -5.85001,3.17603 -8.80099,4.67798c-0.25604,0.12701 -4.07803,2.17401 -2.564,2.10901c1.78098,-0.08801 3.06796,-0.39801 4.76898,-0.922c3.49203,-1.08197 6.34402,-1.85901 9.95303,-2.06799c0.18597,1.49194 -1.52905,2.992 -2.82404,3.229c3.41803,0.06598 7.01599,0.43298 10.40997,0c-5.05795,6.04498 -11.79697,9.38 -18.61301,12.70099c-7.67593,3.73596 -11.67996,5.38495 -19.54095,9.27502c-3.04898,1.508 -7.297,4.84192 -9.83005,5.03693c-4.28693,0.31903 13.66003,-5.922 5.54504,2.24603c-5.48999,5.52203 -27.42404,16.383 -33.74197,20.75397c-3.56107,2.45703 -6.996,5.22308 -10.879,7.07404c-3.98903,1.91602 -7.98903,3.77997 -12.01405,5.61401c-7.39603,3.37903 -14.32397,7.10895 -18.31799,14.78302c-1.84802,3.539 -2.57501,8.11493 -3.60403,11.98798c-1.03299,3.84601 -2.92599,7.823 -4.83597,11.25397c-3.72198,6.69904 -14.82001,7.13104 -21.07001,5.28906c-2.88098,-0.85107 -4.96698,-3.12903 -7.10703,-5.099c-2.39294,-2.19604 -1.86798,-5.47107 -2.59995,-8.67804" id="path86"></path>
    </g>
  </symbol>
  <symbol fill="currentColor" class="bi bi-house-door" viewBox="0 0 16 16" id="house-door" xmlns="http://www.w3.org/2000/svg">
    <path d="M8.354 1.146a.5.5 0 0 0-.708 0l-6 6A.5.5 0 0 0 1.5 7.5v7a.5.5 0 0 0 .5.5h4.5a.5.5 0 0 0 .5-.5v-4h2v4a.5.5 0 0 0 .5.5H14a.5.5 0 0 0 .5-.5v-7a.5.5 0 0 0-.146-.354L13 5.793V2.5a.5.5 0 0 0-.5-.5h-1a.5.5 0 0 0-.5.5v1.293L8.354 1.146zM2.5 14V7.707l5.5-5.5 5.5 5.5V14H10v-4a.5.5 0 0 0-.5-.5h-3a.5.5 0 0 0-.5.5v4H2.5z"/>
  </symbol>
  <symbol fill="currentColor" class="bi bi-person" viewBox="0 0 16 16" id="person" xmlns="http://www.w3.org/2000/svg">
    <path d="M8 8a3 3 0 1 0 0-6 3 3 0 0 0 0 6zm2-3a2 2 0 1 1-4 0 2 2 0 0 1 4 0zm4 8c0 1-1 1-1 1H3s-1 0-1-1 1-4 6-4 6 3 6 4zm-1-.004c-.001-.246-.154-.986-.832-1.664C11.516 10.68 10.289 10 8 10c-2.29 0-3.516.68-4.168 1.332-.678.678-.83 1.418-.832 1.664h10z"/>
  </symbol>
  <symbol fill="currentColor" class="bi bi-person-plus" viewBox="0 0 16 16" id="person-plus" xmlns="http://www.w3.org/2000/svg">
    <path d="M6 8a3 3 0 1 0 0-6 3 3 0 0 0 0 6zm2-3a2 2 0 1 1-4 0 2 2 0 0 1 4 0zm4 8c0 1-1 1-1 1H1s-1 0-1-1 1-4 6-4 6 3 6 4zm-1-.004c-.001-.246-.154-.986-.832-1.664C9.516 10.68 8.289 10 6 10c-2.29 0-3.516.68-4.168 1.332-.678.678-.83 1.418-.832 1.664h10z"/>
    <path fill-rule="evenodd" d="M13.5 5a.5.5 0 0 1 .5.5V7h1.5a.5.5 0 0 1 0 1H14v1.5a.5.5 0 0 1-1 0V8h-1.5a.5.5 0 0 1 0-1H13V5.5a.5.5 0 0 1 .5-.5z"/>
  </symbol>
  <symbol fill="currentColor" class="bi bi-person-check" viewBox="0 0 16 16" id="person-check" xmlns="http://www.w3.org/2000/svg">
    <path d="M6 8a3 3 0 1 0 0-6 3 3 0 0 0 0 6zm2-3a2 2 0 1 1-4 0 2 2 0 0 1 4 0zm4 8c0 1-1 1-1 1H1s-1 0-1-1 1-4 6-4 6 3 6 4zm-1-.004c-.001-.246-.154-.986-.832-1.664C9.516 10.68 8.289 10 6 10c-2.29 0-3.516.68-4.168 1.332-.678.678-.83 1.418-.832 1.664h10z"/>
    <path fill-rule="evenodd" d="M15.854 5.146a.5.5 0 0 1 0 .708l-3 3a.5.5 0 0 1-.708 0l-1.5-1.5a.5.5 0 0 1 .708-.708L12.5 7.793l2.646-2.647a.5.5 0 0 1 .708 0z"/>
  </symbol>
  <symbol fill="currentColor" class="bi bi-list-stars" viewBox="0 0 16 16" id="list-stars" xmlns="http://www.w3.org/2000/svg">
    <path fill-rule="evenodd" d="M5 11.5a.5.5 0 0 1 .5-.5h9a.5.5 0 0 1 0 1h-9a.5.5 0 0 1-.5-.5zm0-4a.5.5 0 0 1 .5-.5h9a.5.5 0 0 1 0 1h-9a.5.5 0 0 1-.5-.5zm0-4a.5.5 0 0 1 .5-.5h9a.5.5 0 0 1 0 1h-9a.5.5 0 0 1-.5-.5z"/>
    <path d="M2.242 2.194a.27.27 0 0 1 .516 0l.162.53c.035.115.14.194.258.194h.551c.259 0 .37.333.164.493l-.468.363a.277.277 0 0 0-.094.3l.173.569c.078.256-.213.462-.423.3l-.417-.324a.267.267 0 0 0-.328 0l-.417.323c-.21.163-.5-.043-.423-.299l.173-.57a.277.277 0 0 0-.094-.299l-.468-.363c-.206-.16-.095-.493.164-.493h.55a.271.271 0 0 0 .259-.194l.162-.53zm0 4a.27.27 0 0 1 .516 0l.162.53c.035.115.14.194.258.194h.551c.259 0 .37.333.164.493l-.468.363a.277.277 0 0 0-.094.3l.173.569c.078.255-.213.462-.423.3l-.417-.324a.267.267 0 0 0-.328 0l-.417.323c-.21.163-.5-.043-.423-.299l.173-.57a.277.277 0 0 0-.094-.299l-.468-.363c-.206-.16-.095-.493.164-.493h.55a.271.271 0 0 0 .259-.194l.162-.53zm0 4a.27.27 0 0 1 .516 0l.162.53c.035.115.14.194.258.194h.551c.259 0 .37.333.164.493l-.468.363a.277.277 0 0 0-.094.3l.173.569c.078.255-.213.462-.423.3l-.417-.324a.267.267 0 0 0-.328 0l-.417.323c-.21.163-.5-.043-.423-.299l.173-.57a.277.277 0 0 0-.094-.299l-.468-.363c-.206-.16-.095-.493.164-.493h.55a.271.271 0 0 0 .259-.194l.162-.53z"/>
  </symbol>
  <symbol fill="currentColor" class="bi bi-journal-text" viewBox="0 0 16 16" id="journal-text" xmlns="http://www.w3.org/2000/svg">
    <path d="M5 10.5a.5.5 0 01.5-.5h2a.5.5 0 010 1h-2a.5.5 0 01-.5-.5zm0-2a.5.5 0 01.5-.5h5a.5.5 0 010 1h-5a.5.5 0 01-.5-.5zm0-2a.5.5 0 01.5-.5h5a.5.5 0 010 1h-5a.5.5 0 01-.5-.5zm0-2a.5.5 0 01.5-.5h5a.5.5 0 010 1h-5a.5.5 0 01-.5-.5z"/>
    <path d="M3 0h10a2 2 0 012 2v12a2 2 0 01-2 2H3a2 2 0 01-2-2v-1h1v1a1 1 0 001 1h10a1 1 0 001-1V2a1 1 0 00-1-1H3a1 1 0 00-1 1v1H1V2a2 2 0 012-2z"/>
    <path d="M1 5v-.5a.5.5 0 011 0V5h.5a.5.5 0 010 1h-2a.5.5 0 010-1H1zm0 3v-.5a.5.5 0 011 0V8h.5a.5.5 0 010 1h-2a.5.5 0 010-1H1zm0 3v-.5a.5.5 0 011 0v.5h.5a.5.5 0 010 1h-2a.5.5 0 010-1H1z"/>
  </symbol>
  <symbol fill="currentColor" class="bi bi-star" viewBox="0 0 16 16" id="star" xmlns="http://www.w3.org/2000/svg">
    <path d="M2.866 14.85c-.078.444.36.791.746.593l4.39-2.256 4.389 2.256c.386.198.824-.149.746-.592l-.83-4.73 3.523-3.356c.329-.314.158-.888-.283-.95l-4.898-.696L8.465.792a.513.513 0 0 0-.927 0L5.354 5.12l-4.898.696c-.441.062-.612.636-.283.95l3.523 3.356-.83 4.73zm4.905-2.767l-3.686 1.894.694-3.957a.565.565 0 0 0-.163-.505L1.71 6.745l4.052-.576a.525.525 0 0 0 .393-.288l1.847-3.658 1.846 3.658a.525.525 0 0 0 .393.288l4.052.575-2.906 2.77a.564.564 0 0 0-.163.506l.694 3.957-3.686-1.894a.503.503 0 0 0-.461 0z"/>
  </symbol>
  <symbol fill="currentColor" class="bi grip-vertical" viewBox="0 0 16 16" id="grip-vertical" xmlns="http://www.w3.org/2000/svg">
    <path d="M7 2a1 1 0 1 1-2 0 1 1 0 0 1 2 0zm3 0a1 1 0 1 1-2 0 1 1 0 0 1 2 0zM7 5a1 1 0 1 1-2 0 1 1 0 0 1 2 0zm3 0a1 1 0 1 1-2 0 1 1 0 0 1 2 0zM7 8a1 1 0 1 1-2 0 1 1 0 0 1 2 0zm3 0a1 1 0 1 1-2 0 1 1 0 0 1 2 0zm-3 3a1 1 0 1 1-2 0 1 1 0 0 1 2 0zm3 0a1 1 0 1 1-2 0 1 1 0 0 1 2 0zm-3 3a1 1 0 1 1-2 0 1 1 0 0 1 2 0zm3 0a1 1 0 1 1-2 0 1 1 0 0 1 2 0z"/>
  </symbol>
  <symbol fill="currentColor" class="bi sliders" viewBox="0 0 16 16" id="sliders" xmlns="http://www.w3.org/2000/svg">
    <path fill-rule="evenodd" d="M11.5 2a1.5 1.5 0 1 0 0 3 1.5 1.5 0 0 0 0-3zM9.05 3a2.5 2.5 0 0 1 4.9 0H16v1h-2.05a2.5 2.5 0 0 1-4.9 0H0V3h9.05zM4.5 7a1.5 1.5 0 1 0 0 3 1.5 1.5 0 0 0 0-3zM2.05 8a2.5 2.5 0 0 1 4.9 0H16v1H6.95a2.5 2.5 0 0 1-4.9 0H0V8h2.05zm9.45 4a1.5 1.5 0 1 0 0 3 1.5 1.5 0 0 0 0-3zm-2.45 1a2.5 2.5 0 0 1 4.9 0H16v1h-2.05a2.5 2.5 0 0 1-4.9 0H0v-1h9.05z"/>
  </symbol>
  <symbol fill="currentColor" class="bi trash" viewBox="0 0 16 16" id="trash" xmlns="http://www.w3.org/2000/svg">
    <path d="M5.5 5.5A.5.5 0 0 1 6 6v6a.5.5 0 0 1-1 0V6a.5.5 0 0 1 .5-.5zm2.5 0a.5.5 0 0 1 .5.5v6a.5.5 0 0 1-1 0V6a.5.5 0 0 1 .5-.5zm3 .5a.5.5 0 0 0-1 0v6a.5.5 0 0 0 1 0V6z"/>
    <path fill-rule="evenodd" d="M14.5 3a1 1 0 0 1-1 1H13v9a2 2 0 0 1-2 2H5a2 2 0 0 1-2-2V4h-.5a1 1 0 0 1-1-1V2a1 1 0 0 1 1-1H6a1 1 0 0 1 1-1h2a1 1 0 0 1 1 1h3.5a1 1 0 0 1 1 1v1zM4.118 4L4 4.059V13a1 1 0 0 0 1 1h6a1 1 0 0 0 1-1V4.059L11.882 4H4.118zM2.5 3V2h11v1h-11z"/>
  </symbol>
  <symbol fill="currentColor" class="bi calendar-plus" viewBox="0 0 16 16" id="calendar-plus" xmlns="http://www.w3.org/2000/svg">
    <path d="M8 7a.5.5 0 0 1 .5.5V9H10a.5.5 0 0 1 0 1H8.5v1.5a.5.5 0 0 1-1 0V10H6a.5.5 0 0 1 0-1h1.5V7.5A.5.5 0 0 1 8 7z"/>
    <path d="M3.5 0a.5.5 0 0 1 .5.5V1h8V.5a.5.5 0 0 1 1 0V1h1a2 2 0 0 1 2 2v11a2 2 0 0 1-2 2H2a2 2 0 0 1-2-2V3a2 2 0 0 1 2-2h1V.5a.5.5 0 0 1 .5-.5zM1 4v10a1 1 0 0 0 1 1h12a1 1 0 0 0 1-1V4H1z"/>
  </symbol>
  <symbol fill="currentColor" class="bi plus-circle" viewBox="0 0 16 16" id="plus-circle" xmlns="http://www.w3.org/2000/svg">
    <path d="M8 15A7 7 0 1 1 8 1a7 7 0 0 1 0 14zm0 1A8 8 0 1 0 8 0a8 8 0 0 0 0 16z"/>
    <path d="M8 4a.5.5 0 0 1 .5.5v3h3a.5.5 0 0 1 0 1h-3v3a.5.5 0 0 1-1 0v-3h-3a.5.5 0 0 1 0-1h3v-3A.5.5 0 0 1 8 4z"/>
  </symbol>
  <symbol fill="currentColor" class="bi wine-glass" viewBox="0 0 288 512" id="wine-glass" xmlns="http://www.w3.org/2000/svg">
    <path d="M213.34 480H160V350.27c76.73-8.72 134.57-77.6 127.4-157.61L271.44 14.55C270.71 6.31 263.9 0 255.74 0H32.26c-8.15 0-14.97 6.31-15.7 14.55L.6 192.66C-6.57 272.67 51.27 341.55 128 350.27V480H74.67C59.94 480 48 491.94 48 506.67c0 2.95 2.39 5.33 5.33 5.33h181.34c2.95 0 5.33-2.39 5.33-5.33 0-14.73-11.94-26.67-26.66-26.67zm27.54-448l8.6 96H38.52l8.6-96h193.76zM32.47 195.51L35.66 160h216.69l3.18 35.51c1.81 20.16-1.58 39.48-9.07 56.6-17.71 40.48-58.27 66.15-102.45 66.15s-84.74-25.67-102.45-66.15c-7.51-17.12-10.89-36.44-9.09-56.6z"></path>
  </symbol>
  <symbol fill="currentColor" class="bi graduation-cap" viewBox="0 0 640 512" id="graduation-cap" xmlns="http://www.w3.org/2000/svg">
    <path fill="currentColor" d="M606.72 147.91l-258-79.57c-18.81-5.78-38.62-5.78-57.44 0l-258 79.57C13.38 154.05 0 171.77 0 192.02s13.38 37.97 33.28 44.11l22.64 6.98c-2.46 5.19-4.4 10.62-5.7 16.31C39.53 264.6 32 275.33 32 288.01c0 10.78 5.68 19.85 13.86 25.65L20.33 428.53C18.11 438.52 25.71 448 35.95 448h56.11c10.24 0 17.84-9.48 15.62-19.47L82.14 313.66c8.17-5.8 13.86-14.87 13.86-25.65 0-10.6-5.49-19.54-13.43-25.36 1.13-3.55 2.96-6.67 4.85-9.83l54.87 16.92L128 384c0 35.34 85.96 64 192 64s192-28.65 192-64l-14.28-114.26 109-33.62c19.91-6.14 33.28-23.86 33.28-44.11s-13.38-37.96-33.28-44.1zM462.44 374.47c-59.7 34.2-225.9 33.78-284.87 0l11.3-90.36 102.42 31.59c11.15 3.43 32.24 7.77 57.44 0l102.42-31.59 11.29 90.36zM334.59 269.82c-9.44 2.91-19.75 2.91-29.19 0L154.62 223.3l168.31-31.56c8.69-1.62 14.41-9.98 12.78-18.67-1.62-8.72-10.09-14.36-18.66-12.76l-203.78 38.2c-6.64 1.24-12.8 3.54-18.71 6.27L53.19 192l252.22-77.79c9.44-2.91 19.75-2.91 29.19 0l252.22 77.82-252.23 77.79z"></path>
  </symbol>
  <symbol fill="currentColor" class="bi cookie" viewBox="0 0 512 512" id="cookie" xmlns="http://www.w3.org/2000/svg">
    <path fill="currentColor" d="M352 328c-13.25 0-24 10.74-24 24 0 13.25 10.75 24 24 24s24-10.75 24-24c0-13.26-10.75-24-24-24zm-8-200c0-13.26-10.75-24-24-24s-24 10.74-24 24c0 13.25 10.75 24 24 24s24-10.75 24-24zm-160 64c0-13.26-10.75-24-24-24s-24 10.74-24 24c0 13.25 10.75 24 24 24s24-10.75 24-24zm8 136c-13.25 0-24 10.74-24 24 0 13.25 10.75 24 24 24s24-10.75 24-24c0-13.26-10.75-24-24-24zm96-96c-13.25 0-24 10.74-24 24 0 13.25 10.75 24 24 24s24-10.75 24-24c0-13.26-10.75-24-24-24zm222.37 22.79l-12.08-76.26a132.493 132.493 0 0 0-37.16-72.95l-54.76-54.75c-19.73-19.72-45.18-32.7-72.71-37.05l-76.7-12.15C250.11.54 243.22 0 236.34 0c-20.72 0-41.25 4.88-59.89 14.38l-69.12 35.21a132.25 132.25 0 0 0-57.79 57.8l-35.1 68.87A132.602 132.602 0 0 0 1.62 257.2l12.08 76.27a132.493 132.493 0 0 0 37.16 72.95l54.76 54.75a132.087 132.087 0 0 0 72.71 37.05l76.7 12.14c6.86 1.09 13.75 1.62 20.63 1.62 20.72 0 41.25-4.88 59.88-14.38l69.12-35.21a132.302 132.302 0 0 0 57.79-57.8l35.1-68.87a132.56 132.56 0 0 0 12.82-80.93zm-41.33 66.41l-35.1 68.88c-9.68 19-24.83 34.15-43.8 43.82l-69.12 35.21c-13.98 7.13-29.67 10.89-45.36 10.89-5.21 0-10.47-.41-15.63-1.23l-76.69-12.14c-20.99-3.33-40.04-13.04-55.09-28.08L73.5 383.79c-15.09-15.09-24.84-34.22-28.18-55.33L33.24 252.2c-3.35-21.12.02-42.36 9.72-61.4l35.1-68.88c9.68-19 24.83-34.15 43.8-43.82l69.12-35.21C204.97 35.77 220.65 32 236.34 32c5.21 0 10.47.41 15.62 1.23l76.7 12.15c20.99 3.32 40.04 13.03 55.08 28.08l54.76 54.75c15.09 15.09 24.84 34.22 28.18 55.33l12.08 76.26c3.35 21.12-.02 42.36-9.72 61.4z"></path>
  </symbol>
  <symbol fill="currentColor" class="bi bi-x-circle" viewBox="0 0 16 16" id="x-circle" xmlns="http://www.w3.org/2000/svg">
    <path d="M8 15A7 7 0 1 1 8 1a7 7 0 0 1 0 14zm0 1A8 8 0 1 0 8 0a8 8 0 0 0 0 16z"/>
    <path d="M4.646 4.646a.5.5 0 0 1 .708 0L8 7.293l2.646-2.647a.5.5 0 0 1 .708.708L8.707 8l2.647 2.646a.5.5 0 0 1-.708.708L8 8.707l-2.646 2.647a.5.5 0 0 1-.708-.708L7.293 8 4.646 5.354a.5.5 0 0 1 0-.708z"/>
  </symbol>
  <symbol fill="currentColor" class="bi bi-search" viewBox="0 0 16 16" id="search" xmlns="http://www.w3.org/2000/svg">
    <path d="M11.742 10.344a6.5 6.5 0 1 0-1.397 1.398h-.001c.03.04.062.078.098.115l3.85 3.85a1 1 0 0 0 1.415-1.414l-3.85-3.85a1.007 1.007 0 0 0-.115-.1zM12 6.5a5.5 5.5 0 1 1-11 0 5.5 5.5 0 0 1 11 0z"/>
  </symbol>
</svg>
