<?xml version="1.0" encoding="utf-8"?>
<svg xmlns="http://www.w3.org/2000/svg" xmlns:xlink="http://www.w3.org/1999/xlink">
  <symbol fill="currentColor" class="bi bi-chough-regular" viewBox="0 0 240 210" id="chough-regular" xmlns="http://www.w3.org/2000/svg">
    <g transform="matrix(1.3333333,0,0,-1.3333333,31.789333,19.890875)">
      <path d="M 0,0 C -9.963,1.65 -13.996,0.701 -23.842,-1.027 -17.455,5.748 -2.697,8.438 2.846,8.691 0.965,6.451 0.803,2.955 0,0" />
    </g>
    <g transform="matrix(1.3333333,0,0,-1.3333333,124.56267,159.66434)">
      <path d="m 0,0 c -2.486,-3.014 -4.363,-6.551 -6.395,-9.924 -1.769,-2.953 -1.584,-6.195 -3.902,-8.654 -1.062,-1.123 -2.109,-3.445 -1.752,-4.865 0.389,-1.575 4.742,-1.842 6.096,-1.842 1.39,0 2.619,-0.639 3.867,-1.19 4.402,-1.955 3.082,-3.121 0.328,-2.65 -0.918,0.15 -1.816,0.932 -2.795,0.766 -1.076,-0.178 -1.715,-0.914 -3.033,-0.998 -2.016,-0.129 -3.328,-0.881 -5.353,-0.737 -1.209,0.076 -3.467,1.285 -4.53,0.573 -0.978,-0.667 -2.045,-0.944 -3.142,-1.293 -0.821,-0.268 -1.198,-0.641 -2.119,-0.737 -1.735,-0.179 -4.78,0.397 -6.264,-0.627 -1.863,-1.269 -2.08,-2.886 -4.182,-2.183 -1.32,0.443 0.28,3.715 1.016,4.144 0.806,0.477 1.619,0.946 2.453,1.381 1.047,0.537 2.396,0.022 3.277,0.477 0.241,0.13 0.537,0.433 0.723,0.656 -2.879,0.73 -5.725,2.203 -8.682,2.203 -1.91,0 -2.685,-0.654 -3.922,-2.273 -0.539,-0.704 -3.353,-2.707 -3.353,-0.383 0,2.429 3.756,6.605 5.869,6.912 3.297,0.459 5.768,-1.863 8.852,-1.992 3.095,-0.123 6.535,-0.651 8.297,2.761 1.521,2.959 3.75,5.268 5.734,7.893 2.008,2.658 2.207,1.848 4.002,4.975 0.889,1.535 3.189,6.685 4.055,8.066 C -4.4,1.176 -0.887,0 0,0" />
    </g>
    <g transform="matrix(1.3333333,0,0,-1.3333333,135.34653,151.89354)">
      <path d="m 0,0 c -0.918,-3.016 -0.871,-9.352 -2.025,-12.582 -1.215,-3.361 -2.286,-3.08 -3.153,-6.281 -1.802,-6.709 -15.65,2.705 -16.23,-5.049 3.635,-0.281 3.472,1.816 11.211,-0.469 0.551,-0.164 1.672,0.445 1.59,-0.683 -0.047,-0.629 -1.489,-0.899 -1.907,-0.922 -1.816,-0.082 -3.638,-0.231 -5.451,-0.477 -1.711,-0.244 -3.098,-0.496 -4.4,-1.746 -1.473,-1.406 4.515,-0.17 5.123,-0.154 3.58,0.092 5.808,-0.869 9.017,0.457 2.434,1.008 7.838,0.57 10.342,0.633 1.809,0.056 2.633,2.169 4.168,2.543 1.233,0.292 4.125,-1.95 4.858,-1.168 1.697,1.8 -5.682,4.017 -7.481,4.017 -1.707,0 -3.223,-0.285 -4.896,0.156 -2.225,0.596 -1.776,2.33 -1.289,4.246 C 1.039,-11.416 3.27,-5.992 4.033,0.324 2.689,0.396 2.99,1.316 1.539,1.389 1.539,1.199 0,0.182 0,0" />
    </g>
    <g transform="matrix(1.3333333,0,0,-1.3333333,27.870006,19.515946)">
      <path d="m 0,0 c 7.607,-2.975 9.457,-14.523 10.176,-21.641 0.394,-3.963 -0.311,-8.226 -0.408,-12.205 -0.112,-4.293 -0.139,-8.588 -0.223,-12.888 -0.088,-4.022 1.359,-7.832 2.285,-11.727 0.904,-3.764 4.248,-9.361 6.44,-12.402 4.724,-6.541 9.517,-12.946 16.777,-16.602 11.023,-5.539 25.771,-4.734 31.988,-15.521 0.922,-1.594 0.074,-2.125 2.072,-2.125 1.844,0 3.346,-1.577 3.555,0.548 0.317,3.233 -1.607,1.59 -2.707,4.856 -0.432,1.283 1.654,2.809 2.656,1.937 0.942,-0.806 2.778,-2.043 4,-1.775 2.991,0.633 4.397,4.957 3.983,0.465 0.492,0.248 3.699,-1.26 4.025,-0.086 0.264,0.967 1.154,0.84 1.725,1.135 2.72,1.439 8.228,1.377 11.144,1 4.25,-0.532 14.848,1.885 24.491,0.418 3.648,-0.553 8.65,-2.801 14.181,-4.694 7.143,-2.197 20.838,-7.064 17.949,-3.24 -1.742,2.305 -5.498,3.815 -7.941,5.207 -2.879,1.652 -5.85,3.174 -8.799,4.676 -0.254,0.127 -4.078,2.174 -2.568,2.107 1.785,-0.086 3.07,-0.396 4.775,-0.922 3.49,-1.082 6.342,-1.859 9.949,-2.066 0.19,1.492 -1.531,2.992 -2.824,3.229 3.418,0.064 7.02,0.433 10.412,0 -5.056,6.045 -11.797,9.38 -18.613,12.701 -7.676,3.736 -11.682,5.383 -19.545,9.273 -3.045,1.508 -7.291,4.844 -9.826,5.039 -4.289,0.317 13.66,-5.922 5.543,2.246 -5.488,5.52 -27.426,16.385 -33.738,20.754 -3.567,2.457 -6.996,5.223 -10.881,7.074 -3.987,1.915 -7.989,3.778 -12.012,5.612 -7.398,3.381 -14.324,7.109 -18.32,14.785 -1.85,3.539 -2.575,8.115 -3.604,11.988 C 35.084,1.002 33.193,4.98 31.277,8.41 27.561,15.107 16.463,15.541 10.213,13.697 7.33,12.848 5.244,10.57 3.102,8.598 0.709,6.404 1.238,3.131 0.5,-0.078" />
    </g>
  </symbol>
  <symbol fill="currentColor" class="bi bi-chough-new" viewBox="0 0 8.6551704 5.7034082" id="chough-new" xmlns="http://www.w3.org/2000/svg">
    <g transform="translate(-43.026526,-27.594454), matrix(0.35277777,0,0,-0.35277777,-193.52381,190.36091)">
     <path d="m 694.4114,446.3075 c -3.409,3.324 -5.84,5.256 -7.479,6.387 -2.258,2.487 -4.244,4.292 -4.28,4.328 -0.007,0.004 -0.012,0.008 -0.019,0.012 -0.164,0.144 -0.342,0.271 -0.523,0.394 -0.324,0.22 -0.648,0.438 -0.973,0.656 -0.267,0.181 -0.539,0.355 -0.803,0.541 -0.204,0.164 -0.386,0.319 -0.547,0.461 -0.069,0.075 -0.141,0.147 -0.212,0.22 -0.228,0.233 -0.414,0.493 -0.627,0.738 -0.1,0.114 -0.207,0.218 -0.322,0.313 -1.29,1.369 -2.54,1.048 -3.033,0.836 -0.163,-0.041 -0.319,-0.114 -0.459,-0.219 -0.169,-0.125 -0.329,-0.263 -0.488,-0.406 -0.495,-0.234 -1.054,-0.427 -1.014,-0.386 -0.31,-0.07 -0.567,-0.146 -0.781,-0.224 -0.003,-0.114 -0.021,-0.227 -0.032,-0.342 -10e-4,-0.009 -0.004,-0.017 -0.005,-0.025 0.11,0.006 0.218,0.013 0.325,0.015 0.105,0.001 0.182,-0.041 0.232,-0.104 0.209,0.033 0.441,0.037 0.557,0.026 0.198,-0.044 0.399,-0.093 0.586,-0.162 0.702,-0.403 0.963,-1.758 1.007,-1.84 l 0.015,-0.032 c 0.15,-0.788 1.17,-2.887 1.75,-3.967 0.146,-0.432 0.375,-0.833 0.669,-1.179 0.983,-1.563 3.2,-2.31 3.2,-2.31 1.313,-0.882 3.152,-0.974 4.155,-0.948 0.423,-0.116 0.818,-0.215 1.168,-0.298 l 0.102,-0.079 c 0.035,0.014 0.075,0.022 0.12,0.021 h 0.027 c 0.77,-0.176 1.269,-0.261 1.269,-0.261 0.499,-0.171 1.374,-0.573 2.316,-1.031 0.863,-0.502 1.754,-0.951 2.672,-1.343 0.79,-0.407 1.344,-0.7 1.344,-0.7 1.605,-0.689 0.112,0.799 0.083,0.908"/>
     <path d="m 694.0335,448.4115 c 0,0 -0.532,0.33 -1.282,0.806 -0.802,0.594 -1.64,1.138 -2.509,1.628 -0.871,0.583 -1.66,1.135 -2.06,1.479 0,0 -5.999,7.128 -9.144,5.621 0.031,-0.073 -2.849,-1.274 2.142,-5.247 0.112,0.065 1.996,-2.032 12.112,-4.818 0.108,0.031 2.147,-0.506 0.741,0.531" />
     <path d="m 670.5364,458.9731 c 0.629,0.485 1.111,0.771 1.568,0.982 0.497,0.23 1.88,0.577 2.411,0.449 0.009,-0.002 0.018,-0.005 0.026,-0.007 0.189,-0.069 0.334,-0.524 0.375,-0.723 0.059,-0.298 0.066,-0.31 -0.182,-0.34 -0.179,-0.021 -0.425,-0.016 -0.577,-0.006 -1.324,0.087 -2.224,-0.024 -3.621,-0.355"/>
     <path d="m 683.9895,447.9374 -0.462,0.29 -2.243,-1.837 h 0.758 c 0.398,0.284 1.947,1.547 1.947,1.547"/>
     <path d="m 684.6331,448.7065 c 0.011,0.218 -0.006,0.436 -0.056,0.65 -0.03,0.136 -0.074,0.269 -0.13,0.397 -0.026,0.061 -0.05,0.144 -0.113,0.179 -0.137,0.078 -0.3,-0.084 -0.404,-0.148 -0.146,-0.088 -0.316,-0.165 -0.489,-0.13 -0.123,0.025 -0.237,0.103 -0.348,0.156 -0.111,0.054 -0.225,0.103 -0.34,0.147 -0.086,0.033 -0.188,0.086 -0.279,0.095 -0.089,0.009 -0.164,-0.041 -0.123,-0.133 0.039,-0.087 0.135,-0.155 0.202,-0.218 0.083,-0.078 0.162,-0.161 0.238,-0.246 0.175,-0.197 0.331,-0.409 0.484,-0.622 0.062,-0.086 0.141,-0.179 0.187,-0.28 0,-0.047 0.001,-0.094 0.01,-0.14 0.011,-0.065 0.031,-0.126 0.056,-0.186 l 0.461,-0.29 c 0,0 0.709,0.207 0.644,0.769"/>
     <path d="m 686.5208,447.9374 -0.461,0.29 -2.244,-1.837 h 0.759 c 0.398,0.284 1.946,1.547 1.946,1.547"/>
     <path d="m 687.1643,448.7065 c 0.012,0.218 -0.006,0.436 -0.055,0.65 -0.031,0.136 -0.074,0.269 -0.13,0.397 -0.026,0.061 -0.051,0.144 -0.113,0.179 -0.138,0.078 -0.3,-0.084 -0.405,-0.148 -0.145,-0.088 -0.315,-0.165 -0.489,-0.13 -0.122,0.025 -0.237,0.103 -0.348,0.156 -0.111,0.054 -0.225,0.103 -0.339,0.147 -0.086,0.033 -0.188,0.086 -0.279,0.095 -0.089,0.009 -0.164,-0.041 -0.123,-0.133 0.038,-0.087 0.135,-0.155 0.201,-0.218 0.084,-0.078 0.163,-0.161 0.239,-0.246 0.175,-0.197 0.331,-0.409 0.484,-0.622 0.061,-0.086 0.141,-0.179 0.187,-0.28 0,-0.047 0.001,-0.094 0.009,-0.14 0.012,-0.065 0.031,-0.126 0.057,-0.186 l 0.46,-0.29 c 0,0 0.709,0.207 0.644,0.769"/>
     <path d="m 681.7356,446.5326 c -0.68,-0.043 -1.359,0.056 -2.039,0.03 -0.183,-0.007 -0.363,-0.039 -0.544,-0.07 -0.064,-0.011 -0.102,-0.091 -0.085,-0.15 0.019,-0.07 0.085,-0.098 0.15,-0.086 0.081,0.013 0.162,0.028 0.243,0.04 0.007,10e-4 0.016,0.002 0.024,0.004 0.023,0.003 -0.028,-0.004 0.011,0.001 0.015,0.002 0.032,0.003 0.048,0.005 0.037,0.004 0.075,0.007 0.112,0.009 0.164,0.008 0.328,0.007 0.492,0.003 0.344,-0.009 0.688,-0.032 1.031,-0.039 0.186,-0.005 0.371,-0.004 0.557,0.008 0.063,0.004 0.126,0.053 0.123,0.122 -0.003,0.063 -0.055,0.127 -0.123,0.123"/>
     <path d="m 681.7356,446.4975 c -0.631,-0.031 -1.263,-0.083 -1.888,-0.176 -0.171,-0.025 -0.339,-0.064 -0.507,-0.107 -0.063,-0.017 -0.102,-0.088 -0.084,-0.151 0.017,-0.065 0.085,-0.103 0.15,-0.086 0.144,0.038 0.29,0.073 0.437,0.097 0.146,0.024 0.289,0.04 0.438,0.058 0.307,0.035 0.614,0.065 0.923,0.087 0.177,0.013 0.353,0.024 0.531,0.032 0.063,0.003 0.126,0.055 0.123,0.123 -0.003,0.064 -0.055,0.126 -0.123,0.123"/>
     <path d="m 681.678,446.5033 c -0.56,-0.116 -1.12,-0.25 -1.663,-0.429 -0.154,-0.051 -0.302,-0.116 -0.447,-0.188 -0.06,-0.029 -0.077,-0.114 -0.044,-0.168 0.035,-0.061 0.108,-0.073 0.168,-0.044 0.12,0.059 0.233,0.11 0.359,0.153 0.13,0.045 0.263,0.083 0.395,0.121 0.27,0.077 0.543,0.148 0.817,0.213 0.159,0.037 0.32,0.072 0.48,0.105 0.066,0.013 0.103,0.09 0.086,0.151 -0.018,0.067 -0.086,0.099 -0.151,0.086"/>
     <path d="m 681.7903,446.2304 c 0.474,-0.043 0.94,-0.117 1.405,-0.224 0.063,-0.015 0.136,0.019 0.151,0.085 0.014,0.063 -0.019,0.136 -0.085,0.152 -0.485,0.111 -0.976,0.187 -1.471,0.233 -0.063,0.005 -0.125,-0.061 -0.122,-0.123 0.003,-0.072 0.054,-0.117 0.122,-0.123"/>
     <path d="m 684.3948,446.5326 c -0.68,-0.043 -1.359,0.056 -2.039,0.03 -0.184,-0.007 -0.363,-0.039 -0.544,-0.07 -0.065,-0.011 -0.102,-0.091 -0.086,-0.15 0.02,-0.07 0.086,-0.098 0.151,-0.086 0.08,0.013 0.162,0.028 0.242,0.04 0.008,10e-4 0.016,0.002 0.025,0.004 0.023,0.003 -0.029,-0.004 0.01,0.001 0.016,0.002 0.032,0.003 0.049,0.005 0.037,0.004 0.074,0.007 0.112,0.009 0.163,0.008 0.327,0.007 0.491,0.003 0.345,-0.009 0.688,-0.032 1.032,-0.039 0.186,-0.005 0.371,-0.004 0.557,0.008 0.063,0.004 0.125,0.053 0.122,0.122 -0.003,0.063 -0.054,0.127 -0.122,0.123"/>
     <path d="m 684.3948,446.4975 c -0.631,-0.031 -1.264,-0.083 -1.888,-0.176 -0.172,-0.025 -0.339,-0.064 -0.507,-0.107 -0.064,-0.017 -0.103,-0.088 -0.085,-0.151 0.018,-0.065 0.086,-0.103 0.151,-0.086 0.144,0.038 0.289,0.073 0.436,0.097 0.147,0.024 0.289,0.04 0.439,0.058 0.307,0.035 0.614,0.065 0.923,0.087 0.177,0.013 0.353,0.024 0.531,0.032 0.063,0.003 0.125,0.055 0.122,0.123 -0.003,0.064 -0.054,0.126 -0.122,0.123"/>
     <path d="m 684.3372,446.5033 c -0.56,-0.116 -1.121,-0.25 -1.664,-0.429 -0.154,-0.051 -0.301,-0.116 -0.446,-0.188 -0.06,-0.029 -0.077,-0.114 -0.045,-0.168 0.036,-0.061 0.108,-0.073 0.168,-0.044 0.12,0.059 0.234,0.11 0.36,0.153 0.13,0.045 0.262,0.083 0.395,0.121 0.27,0.077 0.543,0.148 0.817,0.213 0.159,0.037 0.319,0.072 0.48,0.105 0.065,0.013 0.103,0.09 0.086,0.151 -0.018,0.067 -0.086,0.099 -0.151,0.086"/>
     <path d="m 684.3469,446.2519 c 0.526,-0.044 1.042,-0.116 1.56,-0.224 0.062,-0.013 0.135,0.018 0.151,0.085 0.014,0.062 -0.019,0.138 -0.086,0.151 -0.536,0.112 -1.079,0.188 -1.625,0.234 -0.063,0.005 -0.125,-0.061 -0.122,-0.123 0.003,-0.071 0.054,-0.117 0.122,-0.123"/>
   </g>
  </symbol>
  <symbol fill="currentColor" class="bi bi-chough-modern" viewBox="0 0 60 47" id="chough-modern" xmlns="http://www.w3.org/2000/svg">
    <g transform="scale(0.99478715,0.99245439)">
      <path d="m 27.24633,47.35734 9.68022,-3.20145 1.75331,-8.23208 z"/>
      <path d="m 12.14649,0 5.84482,21.46158 c 1.33244,4.89197 4.80801,8.91717 9.45303,10.94811 L 60.31441,46.7808 47.33219,31.97824 51.36727,32.92475 21.46758,2.29305 C 20.38209,1.18074 18.92794,0.50376 17.37818,0.38876 Z"/>
      <path d="M 12.14649,0 13.38368,4.54236 0,8.44691 Z"/>
    </g>
  </symbol>
  <symbol fill="currentColor" class="bi bi-chef-hat" viewBox="0 0 512 512" id="chef-hat" xmlns="http://www.w3.org/2000/svg">
    <path d="M416 32a95.17 95.17 0 0 0-57.73 19.74C334.93 20.5 298 0 256 0s-78.93 20.5-102.27 51.74A95.56 95.56 0 0 0 0 128c0 41.74 64 224 64 224v128a32 32 0 0 0 32 32h320a32 32 0 0 0 32-32V352s64-182.26 64-224a96 96 0 0 0-96-96zM112 464v-80h288v80zm290.74-128h-29.55L384 201.25a8 8 0 0 0-7.33-8.61l-16-1.28h-.65a8 8 0 0 0-8 7.37l-11 137.3h-69.68V200a8 8 0 0 0-8-8h-16a8 8 0 0 0-8 8v136h-68.42l-11-137.3a8 8 0 0 0-8-7.37h-.65l-16 1.28a8 8 0 0 0-7.33 8.61L138.81 336h-29.55C80 252.78 48.46 149.34 48 128a47.57 47.57 0 0 1 76.72-38l38.52 29.22 28.94-38.73C207.6 59.84 230.86 48 256 48s48.4 11.84 63.82 32.47l28.94 38.73L387.28 90A47.57 47.57 0 0 1 464 127.92c-.46 21.42-32 124.86-61.26 208.08z"/>
  </symbol>
  <symbol fill="currentColor" class="bi bi-house-door" viewBox="0 0 16 16" id="house-door" xmlns="http://www.w3.org/2000/svg">
    <path d="M8.354 1.146a.5.5 0 0 0-.708 0l-6 6A.5.5 0 0 0 1.5 7.5v7a.5.5 0 0 0 .5.5h4.5a.5.5 0 0 0 .5-.5v-4h2v4a.5.5 0 0 0 .5.5H14a.5.5 0 0 0 .5-.5v-7a.5.5 0 0 0-.146-.354L13 5.793V2.5a.5.5 0 0 0-.5-.5h-1a.5.5 0 0 0-.5.5v1.293L8.354 1.146zM2.5 14V7.707l5.5-5.5 5.5 5.5V14H10v-4a.5.5 0 0 0-.5-.5h-3a.5.5 0 0 0-.5.5v4H2.5z"/>
  </symbol>
  <symbol fill="currentColor" class="bi bi-person" viewBox="0 0 16 16" id="person" xmlns="http://www.w3.org/2000/svg">
    <path d="M8 8a3 3 0 1 0 0-6 3 3 0 0 0 0 6zm2-3a2 2 0 1 1-4 0 2 2 0 0 1 4 0zm4 8c0 1-1 1-1 1H3s-1 0-1-1 1-4 6-4 6 3 6 4zm-1-.004c-.001-.246-.154-.986-.832-1.664C11.516 10.68 10.289 10 8 10c-2.29 0-3.516.68-4.168 1.332-.678.678-.83 1.418-.832 1.664h10z"/>
  </symbol>
  <symbol fill="currentColor" class="bi bi-person-secret" viewBox="0 0 448 512" id="person-secret" xmlns="http://www.w3.org/2000/svg">
    <path d="M383.9 308.3l23.9-62.6c4-10.5-3.7-21.7-15-21.7h-43.2c1.5-7.8 2.4-15.8 2.4-24 0-7.2-.9-14.2-2.2-21.1 40.5-9.8 66.2-24.2 66.2-40.2 0-16.5-27-31.2-69.3-41-8.9-33.6-27.4-67.9-41.3-85.4-6.3-8-15.7-12.3-25.3-12.3-9.5 0-12.3 2.4-41.8 17.2-12.8 6.4-24.3 2.1-28.6 0C179.9 2.3 177.3 0 167.9 0c-9.6 0-18.9 4.3-25.2 12.2-13.9 17.5-32.4 51.8-41.3 85.4C59 107.4 32 122.2 32 138.7c0 16.1 25.7 30.5 66.2 40.2-1.3 6.9-2.2 13.9-2.2 21.1 0 8.2.9 16.2 2.4 24H56.3c-11.5 0-19.2 11.7-14.7 22.3l25.8 60.2C27.3 329.8 0 372.7 0 422.4v44.8C0 491.9 20.1 512 44.8 512h358.4c24.7 0 44.8-20.1 44.8-44.8v-44.8c0-48.4-25.8-90.4-64.1-114.1zM128 200c0-2.7.3-5.3.6-7.9 1.3.8 5.1 3.3 5.8 5.4 3.9 11.9 7 24.6 16.5 33.4 8 7.4 47 25.1 64-25 2.8-8.4 15.4-8.4 18.3 0 16 47.4 53.9 34.4 64 25 9.5-8.8 12.7-21.5 16.5-33.4.7-2.1 4.4-4.6 5.8-5.4.3 2.6.6 5.2.6 7.9 0 52.9-43.1 96-96 96S128 252.9 128 200zm-.7-75.5c.7-2.7 12.3-57 40.5-92.5 28.7 14.4 37.7 20.5 56.2 20.5 18.6 0 27.7-6.3 56.2-20.5l.1.1c28.1 35.4 39.7 89.6 40.4 92.4 21.4 4.9 35.8 7.9 51 14.2-24.3 9.9-75.4 21.3-147.7 21.3s-123.4-11.4-147.7-21.3c15.2-6.3 29.9-9.3 51-14.2zM44.8 480c-7.1 0-12.8-5.7-12.8-12.8v-44.8c0-36.5 19.2-69.5 51.4-88.2L108 320l-27.4-64h28.9c4.7 9.6 64.3 108.5 64.3 108.5L142.9 480H44.8zm131.2 0l32-120-21.9-38.4c12.1 3.8 24.6 6.4 37.9 6.4s25.9-2.6 37.9-6.4L240 360l32 120h-96zm240-12.8c0 7.1-5.7 12.8-12.8 12.8h-98.1l-30.8-115.5s59.6-98.9 64.3-108.5h31l-25 65.6 22.5 13.9c30.6 18.9 48.9 51.4 48.9 86.9v44.8z"/>
  </symbol>
  <symbol fill="currentColor" class="bi bi-person-plus" viewBox="0 0 16 16" id="person-plus" xmlns="http://www.w3.org/2000/svg">
    <path d="M6 8a3 3 0 1 0 0-6 3 3 0 0 0 0 6zm2-3a2 2 0 1 1-4 0 2 2 0 0 1 4 0zm4 8c0 1-1 1-1 1H1s-1 0-1-1 1-4 6-4 6 3 6 4zm-1-.004c-.001-.246-.154-.986-.832-1.664C9.516 10.68 8.289 10 6 10c-2.29 0-3.516.68-4.168 1.332-.678.678-.83 1.418-.832 1.664h10z"/>
    <path fill-rule="evenodd" d="M13.5 5a.5.5 0 0 1 .5.5V7h1.5a.5.5 0 0 1 0 1H14v1.5a.5.5 0 0 1-1 0V8h-1.5a.5.5 0 0 1 0-1H13V5.5a.5.5 0 0 1 .5-.5z"/>
  </symbol>
  <symbol fill="currentColor" class="bi bi-person-check" viewBox="0 0 16 16" id="person-check" xmlns="http://www.w3.org/2000/svg">
    <path d="M6 8a3 3 0 1 0 0-6 3 3 0 0 0 0 6zm2-3a2 2 0 1 1-4 0 2 2 0 0 1 4 0zm4 8c0 1-1 1-1 1H1s-1 0-1-1 1-4 6-4 6 3 6 4zm-1-.004c-.001-.246-.154-.986-.832-1.664C9.516 10.68 8.289 10 6 10c-2.29 0-3.516.68-4.168 1.332-.678.678-.83 1.418-.832 1.664h10z"/>
    <path fill-rule="evenodd" d="M15.854 5.146a.5.5 0 0 1 0 .708l-3 3a.5.5 0 0 1-.708 0l-1.5-1.5a.5.5 0 0 1 .708-.708L12.5 7.793l2.646-2.647a.5.5 0 0 1 .708 0z"/>
  </symbol>
  <symbol fill="currentColor" class="bi bi-list-stars" viewBox="0 0 16 16" id="list-stars" xmlns="http://www.w3.org/2000/svg">
    <path fill-rule="evenodd" d="M5 11.5a.5.5 0 0 1 .5-.5h9a.5.5 0 0 1 0 1h-9a.5.5 0 0 1-.5-.5zm0-4a.5.5 0 0 1 .5-.5h9a.5.5 0 0 1 0 1h-9a.5.5 0 0 1-.5-.5zm0-4a.5.5 0 0 1 .5-.5h9a.5.5 0 0 1 0 1h-9a.5.5 0 0 1-.5-.5z"/>
    <path d="M2.242 2.194a.27.27 0 0 1 .516 0l.162.53c.035.115.14.194.258.194h.551c.259 0 .37.333.164.493l-.468.363a.277.277 0 0 0-.094.3l.173.569c.078.256-.213.462-.423.3l-.417-.324a.267.267 0 0 0-.328 0l-.417.323c-.21.163-.5-.043-.423-.299l.173-.57a.277.277 0 0 0-.094-.299l-.468-.363c-.206-.16-.095-.493.164-.493h.55a.271.271 0 0 0 .259-.194l.162-.53zm0 4a.27.27 0 0 1 .516 0l.162.53c.035.115.14.194.258.194h.551c.259 0 .37.333.164.493l-.468.363a.277.277 0 0 0-.094.3l.173.569c.078.255-.213.462-.423.3l-.417-.324a.267.267 0 0 0-.328 0l-.417.323c-.21.163-.5-.043-.423-.299l.173-.57a.277.277 0 0 0-.094-.299l-.468-.363c-.206-.16-.095-.493.164-.493h.55a.271.271 0 0 0 .259-.194l.162-.53zm0 4a.27.27 0 0 1 .516 0l.162.53c.035.115.14.194.258.194h.551c.259 0 .37.333.164.493l-.468.363a.277.277 0 0 0-.094.3l.173.569c.078.255-.213.462-.423.3l-.417-.324a.267.267 0 0 0-.328 0l-.417.323c-.21.163-.5-.043-.423-.299l.173-.57a.277.277 0 0 0-.094-.299l-.468-.363c-.206-.16-.095-.493.164-.493h.55a.271.271 0 0 0 .259-.194l.162-.53z"/>
  </symbol>
  <symbol fill="currentColor" class="bi bi-journal-text" viewBox="0 0 16 16" id="journal-text" xmlns="http://www.w3.org/2000/svg">
    <path d="M5 10.5a.5.5 0 01.5-.5h2a.5.5 0 010 1h-2a.5.5 0 01-.5-.5zm0-2a.5.5 0 01.5-.5h5a.5.5 0 010 1h-5a.5.5 0 01-.5-.5zm0-2a.5.5 0 01.5-.5h5a.5.5 0 010 1h-5a.5.5 0 01-.5-.5zm0-2a.5.5 0 01.5-.5h5a.5.5 0 010 1h-5a.5.5 0 01-.5-.5z"/>
    <path d="M3 0h10a2 2 0 012 2v12a2 2 0 01-2 2H3a2 2 0 01-2-2v-1h1v1a1 1 0 001 1h10a1 1 0 001-1V2a1 1 0 00-1-1H3a1 1 0 00-1 1v1H1V2a2 2 0 012-2z"/>
    <path d="M1 5v-.5a.5.5 0 011 0V5h.5a.5.5 0 010 1h-2a.5.5 0 010-1H1zm0 3v-.5a.5.5 0 011 0V8h.5a.5.5 0 010 1h-2a.5.5 0 010-1H1zm0 3v-.5a.5.5 0 011 0v.5h.5a.5.5 0 010 1h-2a.5.5 0 010-1H1z"/>
  </symbol>
  <symbol fill="currentColor" class="bi grip-vertical" viewBox="0 0 16 16" id="grip-vertical" xmlns="http://www.w3.org/2000/svg">
    <path d="M7 2a1 1 0 1 1-2 0 1 1 0 0 1 2 0zm3 0a1 1 0 1 1-2 0 1 1 0 0 1 2 0zM7 5a1 1 0 1 1-2 0 1 1 0 0 1 2 0zm3 0a1 1 0 1 1-2 0 1 1 0 0 1 2 0zM7 8a1 1 0 1 1-2 0 1 1 0 0 1 2 0zm3 0a1 1 0 1 1-2 0 1 1 0 0 1 2 0zm-3 3a1 1 0 1 1-2 0 1 1 0 0 1 2 0zm3 0a1 1 0 1 1-2 0 1 1 0 0 1 2 0zm-3 3a1 1 0 1 1-2 0 1 1 0 0 1 2 0zm3 0a1 1 0 1 1-2 0 1 1 0 0 1 2 0z"/>
  </symbol>
  <symbol fill="currentColor" class="bi sliders" viewBox="0 0 16 16" id="sliders" xmlns="http://www.w3.org/2000/svg">
    <path fill-rule="evenodd" d="M11.5 2a1.5 1.5 0 1 0 0 3 1.5 1.5 0 0 0 0-3zM9.05 3a2.5 2.5 0 0 1 4.9 0H16v1h-2.05a2.5 2.5 0 0 1-4.9 0H0V3h9.05zM4.5 7a1.5 1.5 0 1 0 0 3 1.5 1.5 0 0 0 0-3zM2.05 8a2.5 2.5 0 0 1 4.9 0H16v1H6.95a2.5 2.5 0 0 1-4.9 0H0V8h2.05zm9.45 4a1.5 1.5 0 1 0 0 3 1.5 1.5 0 0 0 0-3zm-2.45 1a2.5 2.5 0 0 1 4.9 0H16v1h-2.05a2.5 2.5 0 0 1-4.9 0H0v-1h9.05z"/>
  </symbol>
  <symbol fill="currentColor" class="bi trash" viewBox="0 0 16 16" id="trash" xmlns="http://www.w3.org/2000/svg">
    <path d="M5.5 5.5A.5.5 0 0 1 6 6v6a.5.5 0 0 1-1 0V6a.5.5 0 0 1 .5-.5zm2.5 0a.5.5 0 0 1 .5.5v6a.5.5 0 0 1-1 0V6a.5.5 0 0 1 .5-.5zm3 .5a.5.5 0 0 0-1 0v6a.5.5 0 0 0 1 0V6z"/>
    <path fill-rule="evenodd" d="M14.5 3a1 1 0 0 1-1 1H13v9a2 2 0 0 1-2 2H5a2 2 0 0 1-2-2V4h-.5a1 1 0 0 1-1-1V2a1 1 0 0 1 1-1H6a1 1 0 0 1 1-1h2a1 1 0 0 1 1 1h3.5a1 1 0 0 1 1 1v1zM4.118 4L4 4.059V13a1 1 0 0 0 1 1h6a1 1 0 0 0 1-1V4.059L11.882 4H4.118zM2.5 3V2h11v1h-11z"/>
  </symbol>
  <symbol fill="currentColor" class="bi calendar-plus" viewBox="0 0 16 16" id="calendar-plus" xmlns="http://www.w3.org/2000/svg">
    <path d="M8 7a.5.5 0 0 1 .5.5V9H10a.5.5 0 0 1 0 1H8.5v1.5a.5.5 0 0 1-1 0V10H6a.5.5 0 0 1 0-1h1.5V7.5A.5.5 0 0 1 8 7z"/>
    <path d="M3.5 0a.5.5 0 0 1 .5.5V1h8V.5a.5.5 0 0 1 1 0V1h1a2 2 0 0 1 2 2v11a2 2 0 0 1-2 2H2a2 2 0 0 1-2-2V3a2 2 0 0 1 2-2h1V.5a.5.5 0 0 1 .5-.5zM1 4v10a1 1 0 0 0 1 1h12a1 1 0 0 0 1-1V4H1z"/>
  </symbol>
  <symbol fill="currentColor" class="bi plus-circle" viewBox="0 0 16 16" id="plus-circle" xmlns="http://www.w3.org/2000/svg">
    <path d="M8 15A7 7 0 1 1 8 1a7 7 0 0 1 0 14zm0 1A8 8 0 1 0 8 0a8 8 0 0 0 0 16z"/>
    <path d="M8 4a.5.5 0 0 1 .5.5v3h3a.5.5 0 0 1 0 1h-3v3a.5.5 0 0 1-1 0v-3h-3a.5.5 0 0 1 0-1h3v-3A.5.5 0 0 1 8 4z"/>
  </symbol>
  <symbol fill="currentColor" class="bi bullseye" viewBox="0 0 16 16" id="bullseye" xmlns="http://www.w3.org/2000/svg">
    <path d="M8 15A7 7 0 1 1 8 1a7 7 0 0 1 0 14zm0 1A8 8 0 1 0 8 0a8 8 0 0 0 0 16z"/>
    <path d="M8 13A5 5 0 1 1 8 3a5 5 0 0 1 0 10zm0 1A6 6 0 1 0 8 2a6 6 0 0 0 0 12z"/>
    <path d="M8 11a3 3 0 1 1 0-6 3 3 0 0 1 0 6zm0 1a4 4 0 1 0 0-8 4 4 0 0 0 0 8z"/>
    <path d="M9.5 8a1.5 1.5 0 1 1-3 0 1.5 1.5 0 0 1 3 0z"/>
  </symbol>
  <symbol fill="currentColor" class="bi wine-glass" viewBox="0 0 288 512" id="wine-glass" xmlns="http://www.w3.org/2000/svg">
    <path d="M213.34 480H160V350.27c76.73-8.72 134.57-77.6 127.4-157.61L271.44 14.55C270.71 6.31 263.9 0 255.74 0H32.26c-8.15 0-14.97 6.31-15.7 14.55L.6 192.66C-6.57 272.67 51.27 341.55 128 350.27V480H74.67C59.94 480 48 491.94 48 506.67c0 2.95 2.39 5.33 5.33 5.33h181.34c2.95 0 5.33-2.39 5.33-5.33 0-14.73-11.94-26.67-26.66-26.67zm27.54-448l8.6 96H38.52l8.6-96h193.76zM32.47 195.51L35.66 160h216.69l3.18 35.51c1.81 20.16-1.58 39.48-9.07 56.6-17.71 40.48-58.27 66.15-102.45 66.15s-84.74-25.67-102.45-66.15c-7.51-17.12-10.89-36.44-9.09-56.6z"></path>
  </symbol>
  <symbol fill="currentColor" class="bi graduation-cap" viewBox="0 0 640 512" id="graduation-cap" xmlns="http://www.w3.org/2000/svg">
    <path fill="currentColor" d="M606.72 147.91l-258-79.57c-18.81-5.78-38.62-5.78-57.44 0l-258 79.57C13.38 154.05 0 171.77 0 192.02s13.38 37.97 33.28 44.11l22.64 6.98c-2.46 5.19-4.4 10.62-5.7 16.31C39.53 264.6 32 275.33 32 288.01c0 10.78 5.68 19.85 13.86 25.65L20.33 428.53C18.11 438.52 25.71 448 35.95 448h56.11c10.24 0 17.84-9.48 15.62-19.47L82.14 313.66c8.17-5.8 13.86-14.87 13.86-25.65 0-10.6-5.49-19.54-13.43-25.36 1.13-3.55 2.96-6.67 4.85-9.83l54.87 16.92L128 384c0 35.34 85.96 64 192 64s192-28.65 192-64l-14.28-114.26 109-33.62c19.91-6.14 33.28-23.86 33.28-44.11s-13.38-37.96-33.28-44.1zM462.44 374.47c-59.7 34.2-225.9 33.78-284.87 0l11.3-90.36 102.42 31.59c11.15 3.43 32.24 7.77 57.44 0l102.42-31.59 11.29 90.36zM334.59 269.82c-9.44 2.91-19.75 2.91-29.19 0L154.62 223.3l168.31-31.56c8.69-1.62 14.41-9.98 12.78-18.67-1.62-8.72-10.09-14.36-18.66-12.76l-203.78 38.2c-6.64 1.24-12.8 3.54-18.71 6.27L53.19 192l252.22-77.79c9.44-2.91 19.75-2.91 29.19 0l252.22 77.82-252.23 77.79z"></path>
  </symbol>
  <symbol fill="currentColor" class="bi cookie" viewBox="0 0 512 512" id="cookie" xmlns="http://www.w3.org/2000/svg">
    <path fill="currentColor" d="M352 328c-13.25 0-24 10.74-24 24 0 13.25 10.75 24 24 24s24-10.75 24-24c0-13.26-10.75-24-24-24zm-8-200c0-13.26-10.75-24-24-24s-24 10.74-24 24c0 13.25 10.75 24 24 24s24-10.75 24-24zm-160 64c0-13.26-10.75-24-24-24s-24 10.74-24 24c0 13.25 10.75 24 24 24s24-10.75 24-24zm8 136c-13.25 0-24 10.74-24 24 0 13.25 10.75 24 24 24s24-10.75 24-24c0-13.26-10.75-24-24-24zm96-96c-13.25 0-24 10.74-24 24 0 13.25 10.75 24 24 24s24-10.75 24-24c0-13.26-10.75-24-24-24zm222.37 22.79l-12.08-76.26a132.493 132.493 0 0 0-37.16-72.95l-54.76-54.75c-19.73-19.72-45.18-32.7-72.71-37.05l-76.7-12.15C250.11.54 243.22 0 236.34 0c-20.72 0-41.25 4.88-59.89 14.38l-69.12 35.21a132.25 132.25 0 0 0-57.79 57.8l-35.1 68.87A132.602 132.602 0 0 0 1.62 257.2l12.08 76.27a132.493 132.493 0 0 0 37.16 72.95l54.76 54.75a132.087 132.087 0 0 0 72.71 37.05l76.7 12.14c6.86 1.09 13.75 1.62 20.63 1.62 20.72 0 41.25-4.88 59.88-14.38l69.12-35.21a132.302 132.302 0 0 0 57.79-57.8l35.1-68.87a132.56 132.56 0 0 0 12.82-80.93zm-41.33 66.41l-35.1 68.88c-9.68 19-24.83 34.15-43.8 43.82l-69.12 35.21c-13.98 7.13-29.67 10.89-45.36 10.89-5.21 0-10.47-.41-15.63-1.23l-76.69-12.14c-20.99-3.33-40.04-13.04-55.09-28.08L73.5 383.79c-15.09-15.09-24.84-34.22-28.18-55.33L33.24 252.2c-3.35-21.12.02-42.36 9.72-61.4l35.1-68.88c9.68-19 24.83-34.15 43.8-43.82l69.12-35.21C204.97 35.77 220.65 32 236.34 32c5.21 0 10.47.41 15.62 1.23l76.7 12.15c20.99 3.32 40.04 13.03 55.08 28.08l54.76 54.75c15.09 15.09 24.84 34.22 28.18 55.33l12.08 76.26c3.35 21.12-.02 42.36-9.72 61.4z"></path>
  </symbol>
  <symbol fill="currentColor" class="bi bi-x-circle" viewBox="0 0 16 16" id="x-circle" xmlns="http://www.w3.org/2000/svg">
    <path d="M8 15A7 7 0 1 1 8 1a7 7 0 0 1 0 14zm0 1A8 8 0 1 0 8 0a8 8 0 0 0 0 16z"/>
    <path d="M4.646 4.646a.5.5 0 0 1 .708 0L8 7.293l2.646-2.647a.5.5 0 0 1 .708.708L8.707 8l2.647 2.646a.5.5 0 0 1-.708.708L8 8.707l-2.646 2.647a.5.5 0 0 1-.708-.708L7.293 8 4.646 5.354a.5.5 0 0 1 0-.708z"/>
  </symbol>
  <symbol fill="currentColor" class="bi bi-search" viewBox="0 0 16 16" id="search" xmlns="http://www.w3.org/2000/svg">
    <path d="M11.742 10.344a6.5 6.5 0 1 0-1.397 1.398h-.001c.03.04.062.078.098.115l3.85 3.85a1 1 0 0 0 1.415-1.414l-3.85-3.85a1.007 1.007 0 0 0-.115-.1zM12 6.5a5.5 5.5 0 1 1-11 0 5.5 5.5 0 0 1 11 0z"/>
  </symbol>
  <symbol fill="currentColor" class="bi bi-info-circle" viewBox="0 0 16 16" id="info-circle" xmlns="http://www.w3.org/2000/svg">
    <path d="M8 15A7 7 0 1 1 8 1a7 7 0 0 1 0 14zm0 1A8 8 0 1 0 8 0a8 8 0 0 0 0 16z"/>
    <path d="M8.93 6.588l-2.29.287-.082.38.45.083c.294.07.352.176.288.469l-.738 3.468c-.194.897.105 1.319.808 1.319.545 0 1.178-.252 1.465-.598l.088-.416c-.2.176-.492.246-.686.246-.275 0-.375-.193-.304-.533L8.93 6.588zM9 4.5a1 1 0 1 1-2 0 1 1 0 0 1 2 0z"/>
  </symbol>
  <symbol fill="currentColor" class="bi bi-chat-dots" viewBox="0 0 16 16" id="chat-dots" xmlns="http://www.w3.org/2000/svg">
    <path d="M5 8a1 1 0 1 1-2 0 1 1 0 0 1 2 0zm4 0a1 1 0 1 1-2 0 1 1 0 0 1 2 0zm3 1a1 1 0 1 0 0-2 1 1 0 0 0 0 2z"/>
    <path d="M2.165 15.803l.02-.004c1.83-.363 2.948-.842 3.468-1.105A9.06 9.06 0 0 0 8 15c4.418 0 8-3.134 8-7s-3.582-7-8-7-8 3.134-8 7c0 1.76.743 3.37 1.97 4.6a10.437 10.437 0 0 1-.524 2.318l-.003.011a10.722 10.722 0 0 1-.244.637c-.079.186.074.394.273.362a21.673 21.673 0 0 0 .693-.125zm.8-3.108a1 1 0 0 0-.287-.801C1.618 10.83 1 9.468 1 8c0-3.192 3.004-6 7-6s7 2.808 7 6c0 3.193-3.004 6-7 6a8.06 8.06 0 0 1-2.088-.272 1 1 0 0 0-.711.074c-.387.196-1.24.57-2.634.893a10.97 10.97 0 0 0 .398-2z"/>
  </symbol>
</svg>
